<svg width="41" height="41" viewBox="0 0 41 41" fill="none" xmlns="http://www.w3.org/2000/svg">
<rect x="1" y="1" width="39" height="39" rx="19.5" stroke="#1D059D" stroke-width="2"/>
<path d="M22.9217 27.7993C22.8358 27.7993 22.7517 27.7651 22.6897 27.703C22.6117 27.6265 22.5786 27.5156 22.5998 27.4086L22.9655 25.5244C22.9788 25.4599 23.0089 25.4018 23.0552 25.3542L29.6911 18.7183C29.7531 18.6561 29.8364 18.6217 29.9236 18.6217C30.0108 18.6217 30.0937 18.6561 30.1556 18.7183L31.6742 20.2367C31.8022 20.3646 31.8022 20.5731 31.6742 20.7013L25.0383 27.3372C24.992 27.3836 24.9328 27.4152 24.868 27.4272L22.9839 27.7929C22.9643 27.7968 22.9429 27.7993 22.9217 27.7993ZM23.5913 25.7477L23.3379 27.0548L24.6449 26.8012L30.9773 20.4688L29.9238 19.4153L23.5913 25.7477Z" fill="#C93668"/>
<path d="M32.1998 20.0385C32.1126 20.0385 32.0293 20.0041 31.9673 19.9421L30.4489 18.4237C30.321 18.2955 30.321 18.087 30.4489 17.9588L31.348 17.0598C31.4721 16.9369 31.69 16.9369 31.8129 17.0598L33.331 18.5782C33.4592 18.7061 33.4592 18.9147 33.331 19.0428L32.432 19.9421C32.3713 20.004 32.2882 20.0385 32.1998 20.0385ZM31.1472 18.1913L32.2011 19.2448L32.6369 18.8092L31.583 17.7557L31.1472 18.1913Z" fill="#C93668"/>
<path d="M27.9414 22.7779C27.858 22.7779 27.7739 22.7461 27.7091 22.6816C27.5812 22.5534 27.5812 22.3449 27.7091 22.2167L30.4489 19.4771C30.5769 19.3489 30.7856 19.3489 30.9136 19.4771C31.0418 19.6051 31.0418 19.8138 30.9136 19.9418L28.1738 22.6816C28.1104 22.7461 28.0258 22.7779 27.9414 22.7779Z" fill="#C93668"/>
<path d="M24.8053 27.4334C24.7209 27.4334 24.638 27.4018 24.5733 27.337L23.0549 25.8189C22.9269 25.6907 22.9269 25.4822 23.0549 25.3542C23.1829 25.226 23.3916 25.226 23.5196 25.3542L25.0377 26.8724C25.1659 27.0003 25.1659 27.2091 25.0377 27.337C24.973 27.4018 24.8899 27.4334 24.8053 27.4334Z" fill="#C93668"/>
<path d="M26.7496 33.1489H9.89545C9.7147 33.1489 9.56665 33.0023 9.56665 32.8201V8.98432C9.56665 8.80336 9.71321 8.65552 9.89545 8.65552H26.7496C26.9306 8.65552 27.0784 8.80208 27.0784 8.98432V20.285C27.0784 20.4659 26.9319 20.6138 26.7496 20.6138C26.5676 20.6138 26.4208 20.4672 26.4208 20.285V9.31302H10.2246V32.4914H26.4208V27.1955C26.4208 27.0135 26.5676 26.867 26.7496 26.867C26.9306 26.867 27.0784 27.0135 27.0784 27.1955V32.8202C27.0772 33.0011 26.9306 33.149 26.7496 33.149V33.1489Z" fill="#C93668"/>
<path d="M15.368 13.1804H12.3856C12.2033 13.1804 12.0568 13.0339 12.0568 12.8516C12.0568 12.6694 12.2033 12.5228 12.3856 12.5228H15.368C15.549 12.5228 15.6968 12.6694 15.6968 12.8516C15.6968 13.0326 15.549 13.1804 15.368 13.1804Z" fill="#C93668"/>
<path d="M24.1326 19.0955H12.3856C12.2034 19.0955 12.0568 18.9489 12.0568 18.7669C12.0568 18.5847 12.2034 18.4381 12.3856 18.4381H24.1326C24.3148 18.4381 24.4614 18.5847 24.4614 18.7669C24.4614 18.9477 24.3148 19.0955 24.1326 19.0955Z" fill="#C93668"/>
<path d="M24.1326 22.0516H12.3856C12.2034 22.0516 12.0568 21.9051 12.0568 21.7228C12.0568 21.5406 12.2034 21.394 12.3856 21.394H24.1326C24.3148 21.394 24.4614 21.5406 24.4614 21.7228C24.4614 21.9051 24.3148 22.0516 24.1326 22.0516Z" fill="#C93668"/>
<path d="M22.3211 25.0095H12.3856C12.2034 25.0095 12.0568 24.863 12.0568 24.6807C12.0568 24.4998 12.2034 24.3519 12.3856 24.3519H22.3211C22.5034 24.3519 22.6499 24.4985 22.6499 24.6807C22.6499 24.863 22.5021 25.0095 22.3211 25.0095Z" fill="#C93668"/>
<path d="M24.2583 29.282H21.5859C21.4036 29.282 21.2571 29.1355 21.2571 28.9532C21.2571 28.7712 21.4036 28.6246 21.5859 28.6246H24.2583C24.4393 28.6246 24.5867 28.7712 24.5867 28.9532C24.5867 29.1342 24.4406 29.282 24.2583 29.282Z" fill="#C93668"/>
</svg>
