<svg width="20" height="21" viewBox="0 0 20 21" fill="none" xmlns="http://www.w3.org/2000/svg">
<path d="M5.5 10.6473L9.35714 14.0928L14.5 7.20183M10 20.2946C8.8181 20.2946 7.64778 20.0451 6.55585 19.5602C5.46392 19.0754 4.47177 18.3648 3.63604 17.469C2.80031 16.5731 2.13738 15.5096 1.68508 14.3392C1.23279 13.1687 1 11.9142 1 10.6473C1 9.3804 1.23279 8.1259 1.68508 6.95544C2.13738 5.78497 2.80031 4.72146 3.63604 3.82563C4.47177 2.92979 5.46392 2.21918 6.55585 1.73436C7.64778 1.24953 8.8181 1 10 1C12.3869 1 14.6761 2.01641 16.364 3.82563C18.0518 5.63485 19 8.08867 19 10.6473C19 13.2059 18.0518 15.6597 16.364 17.469C14.6761 19.2782 12.3869 20.2946 10 20.2946Z" stroke="white"/>
</svg>
