<svg width="42" height="42" viewBox="0 0 42 42" fill="none" xmlns="http://www.w3.org/2000/svg">
<rect x="1" y="1" width="40" height="40" rx="20" stroke="#1D059D" stroke-width="2"/>
<path d="M14.9384 17.6773H31.7443V18.544L14.9384 18.5442V17.6773ZM14.9384 11.8995V12.7661H31.7443V11.8995H14.9384ZM14.9384 24.3222H31.7443V23.4556H14.9384V24.3222ZM14.9384 30.1001H31.7443V29.2335H14.9384V30.1001ZM13.4743 13.922H10.2559V10.7441H13.4743V13.922ZM10.5483 11.2372V13.4287L11.6581 12.333L10.5483 11.2372ZM11.865 12.1287L12.9747 11.0329H10.7552L11.865 12.1287ZM10.7552 13.633H12.9748L11.865 12.5372L10.7552 13.633ZM13.1817 13.4287V11.2371L12.0719 12.3329L13.1817 13.4287ZM13.4743 19.6997H10.2559V16.5219H13.4743V19.6997ZM13.1817 16.8106H10.5483V19.4108H13.1817V16.8106ZM10.2559 28.0779H13.4743V31.2558H10.2559V28.0779ZM10.5483 30.9668H13.1817V28.3666H10.5483V30.9668ZM15.097 27.8403L14.6773 28.1073L14.4312 28.2641L14.2726 28.0208L13.6204 27.0207L13.4791 27.2219L13.0612 27.8168L12.9498 27.1012L12.637 25.0964L12.5925 24.8115L11.8652 24.0934L10.7552 25.1889H12.6513L12.6964 25.4779H10.2559V22.3H13.4743V25.0312L13.1817 24.8646V22.7931L12.0719 23.8888L12.8943 24.7008L12.5443 24.5012L13.0724 24.8023L14.9004 25.8434L15.5427 26.2096L14.8206 26.3751L14.5327 26.4412L15.1849 27.4412L15.3432 27.6842L15.097 27.8403ZM11.6581 23.8888L10.5483 22.793V24.9846L11.6581 23.8888ZM11.865 23.6845L12.9747 22.5888H10.7551L11.865 23.6845ZM14.9384 27.5977L14.0616 26.2528L14.7542 26.094L12.9262 25.0525L13.239 27.0572L13.6299 26.501L14.5191 27.8647L14.9384 27.5977Z" fill="#C93668"/>
</svg>
