<svg width="22" height="23" viewBox="0 0 22 23" fill="none" xmlns="http://www.w3.org/2000/svg">
<path d="M6.5 11.6473L10.3571 15.0928L15.5 8.20183M11 21.2946C9.8181 21.2946 8.64778 21.0451 7.55585 20.5602C6.46392 20.0754 5.47177 19.3648 4.63604 18.469C3.80031 17.5731 3.13738 16.5096 2.68508 15.3392C2.23279 14.1687 2 12.9142 2 11.6473C2 10.3804 2.23279 9.1259 2.68508 7.95544C3.13738 6.78497 3.80031 5.72146 4.63604 4.82563C5.47177 3.92979 6.46392 3.21918 7.55585 2.73436C8.64778 2.24953 9.8181 2 11 2C13.3869 2 15.6761 3.01641 17.364 4.82563C19.0518 6.63485 20 9.08867 20 11.6473C20 14.2059 19.0518 16.6597 17.364 18.469C15.6761 20.2782 13.3869 21.2946 11 21.2946Z" stroke="white" stroke-width="3"/>
</svg>
