<svg width="43" height="43" viewBox="0 0 43 43" fill="none" xmlns="http://www.w3.org/2000/svg">
<rect x="1" y="1" width="41" height="41" rx="20.5" stroke="#1D059D" stroke-width="2"/>
<path d="M33.3552 13.0503C33.1269 12.8768 32.8392 12.8259 32.5639 12.9024L31.6247 13.1691V10.9986C31.6247 10.931 31.5951 10.8716 31.54 10.8293C31.4849 10.7912 31.4173 10.7784 31.354 10.7955L23.2387 13.11C22.4307 13.3384 21.8044 13.9351 21.4953 14.6841C21.1863 13.9394 20.5561 13.3426 19.752 13.11L11.6406 10.7995C11.5773 10.7824 11.5094 10.7952 11.4546 10.8332C11.4038 10.8713 11.37 10.9349 11.37 11.0025V13.173L10.4307 12.9063C10.1558 12.8259 9.86806 12.881 9.6394 13.0543C9.41106 13.2278 9.27985 13.486 9.27985 13.7737V28.4516C9.27985 29.1202 9.72831 29.7124 10.3716 29.8945L21.2879 33.0088L21.4402 33.0511C21.4572 33.0554 21.4782 33.0597 21.4953 33.0597C21.5123 33.0597 21.5333 33.0554 21.5504 33.0511L32.6195 29.8945C33.2625 29.7124 33.7113 29.116 33.7113 28.4516L33.7107 13.7695C33.7149 13.4818 33.5837 13.2236 33.355 13.05L33.3552 13.0503ZM21.2884 32.5649L10.4905 29.4847C10.0292 29.3535 9.70774 28.9263 9.70774 28.448L9.70741 13.7701C9.70741 13.6178 9.77499 13.4781 9.89768 13.3892C10.0204 13.3003 10.1726 13.2707 10.3166 13.3131L11.37 13.6136V27.5684C11.37 27.6616 11.4334 27.7462 11.5223 27.7715L19.6376 30.086C20.6067 30.3652 21.2877 31.2625 21.2877 32.2693L21.2884 32.5649ZM21.2884 30.8259C20.9413 30.2842 20.4039 29.8652 19.7567 29.6793L11.7936 27.4071V11.2821L19.6382 13.5205C20.6073 13.7996 21.2884 14.6969 21.2884 15.708V30.8259ZM32.1324 22.8838C32.162 22.8966 32.1705 22.9218 32.1705 22.9389C32.1705 22.956 32.1662 22.9812 32.1367 22.9983L31.4005 23.3621C31.3372 23.3959 31.2906 23.4553 31.2778 23.5271C31.265 23.599 31.2864 23.6711 31.3372 23.7259L32.2555 24.6865C32.3231 24.7584 32.3611 24.8515 32.3572 24.949C32.3529 25.0464 32.3149 25.1393 32.243 25.2072C32.0951 25.3469 31.8621 25.3427 31.7227 25.1944L30.808 24.2335C30.7657 24.1869 30.7063 24.1617 30.643 24.1617H30.6135C30.5417 24.1702 30.478 24.2125 30.4442 24.2758L30.0466 24.9953C30.0296 25.0248 30.0086 25.0291 29.9872 25.0291C29.9702 25.0291 29.9449 25.0205 29.9321 24.991L28.6458 21.6313C28.6163 21.5509 28.6586 21.4958 28.6796 21.4791C28.7006 21.4581 28.7557 21.4158 28.8361 21.4538L32.1324 22.8838ZM33.2918 28.4478C33.2918 28.9257 32.9703 29.3532 32.5091 29.4845L21.7112 32.565V32.2688C21.7112 31.2616 22.3883 30.3647 23.3613 30.0855L31.4767 27.771C31.5656 27.7457 31.6289 27.6611 31.6289 27.5679V26.5227C31.6289 26.4043 31.5357 26.3111 31.4173 26.3111C31.2988 26.3111 31.2057 26.4043 31.2057 26.5227V27.4072L23.2426 29.6794C22.5954 29.8654 22.058 30.2843 21.7109 30.8259L21.7112 15.7079C21.7112 14.6965 22.3884 13.7995 23.3614 13.5203L31.206 11.282V21.9782L29.0142 21.0262C28.7898 20.9288 28.5401 20.9753 28.3584 21.1446C28.1806 21.3139 28.1258 21.5636 28.2144 21.7919L29.5007 25.1516C29.5725 25.3419 29.7461 25.4688 29.9491 25.4859C30.1565 25.503 30.3425 25.397 30.4399 25.2192L30.6896 24.775L31.392 25.5112C31.5527 25.6804 31.7729 25.7651 31.9887 25.7651C32.1961 25.7651 32.3991 25.689 32.5599 25.5367C32.8899 25.2238 32.8984 24.6989 32.5851 24.3689L31.8828 23.6327L32.3397 23.4043C32.5218 23.3112 32.6317 23.1294 32.6275 22.9264C32.6232 22.7233 32.5005 22.5455 32.3145 22.4651L31.6292 22.1689V13.6134L32.6826 13.3129C32.8266 13.2705 32.9788 13.3001 33.1015 13.389C33.2242 13.4822 33.2918 13.6173 33.2918 13.7699L33.2918 28.4478Z" fill="#C93668"/>
<path d="M19.1098 16.9808L15.5556 15.9654C15.4457 15.9316 15.3272 15.9992 15.2931 16.1094C15.2593 16.2236 15.3269 16.3378 15.4372 16.3719L18.9914 17.3872C19.0124 17.3915 19.0294 17.3958 19.0507 17.3958C19.1439 17.3958 19.2286 17.3364 19.2538 17.2436C19.2873 17.1287 19.224 17.0103 19.1098 16.9808Z" fill="#C93668"/>
<path d="M19.1098 19.7523L14.0875 18.318C13.9776 18.2884 13.8591 18.3518 13.825 18.462C13.7912 18.5762 13.8588 18.6903 13.969 18.7244L18.9914 20.1587C19.0124 20.163 19.0294 20.1672 19.0508 20.1672C19.1439 20.1672 19.2286 20.1079 19.2538 20.015C19.2873 19.9002 19.224 19.786 19.1098 19.7523Z" fill="#C93668"/>
<path d="M19.1098 22.5237L14.0875 21.0894C13.9776 21.0556 13.8591 21.1232 13.825 21.2334C13.7912 21.3476 13.8588 21.4618 13.969 21.4959L18.9914 22.9302C19.0124 22.9344 19.0294 22.9387 19.0508 22.9387C19.1439 22.9387 19.2286 22.8793 19.2538 22.7865C19.2873 22.6717 19.224 22.5575 19.1098 22.5237Z" fill="#C93668"/>
<path d="M19.1098 25.2952L14.0875 23.8609C13.9776 23.8271 13.8591 23.8947 13.825 24.0049C13.7912 24.1191 13.8588 24.2333 13.969 24.2674L18.9914 25.7017C19.0124 25.7059 19.0294 25.7102 19.0508 25.7102C19.1439 25.7102 19.2286 25.6508 19.2538 25.558C19.2873 25.4431 19.224 25.329 19.1098 25.2952Z" fill="#C93668"/>
<path d="M23.9456 17.3957C23.9666 17.3957 23.9837 17.3914 24.005 17.3872L29.0274 15.9529C29.1415 15.9191 29.2052 15.8049 29.1714 15.6904C29.1376 15.5763 29.0234 15.5126 28.9089 15.5464L23.8866 16.9807C23.7724 17.0145 23.7088 17.1286 23.7426 17.2431C23.7724 17.3363 23.8571 17.3957 23.9456 17.3957Z" fill="#C93668"/>
<path d="M23.9456 20.1671C23.9666 20.1671 23.9837 20.1629 24.005 20.1586L25.4692 19.7397C25.5834 19.7059 25.647 19.5917 25.6132 19.4772C25.5794 19.3631 25.4653 19.2994 25.3508 19.3332L23.8866 19.7521C23.7724 19.7859 23.7088 19.9001 23.7426 20.0146C23.7724 20.1078 23.8571 20.1671 23.9456 20.1671Z" fill="#C93668"/>
<path d="M23.9456 22.9386C23.9666 22.9386 23.9837 22.9344 24.005 22.9301L24.4492 22.8032C24.5634 22.7694 24.627 22.6552 24.5932 22.5407C24.5595 22.4265 24.4453 22.3629 24.3308 22.3967L23.8866 22.5236C23.7724 22.5574 23.7088 22.6716 23.7426 22.7861C23.7682 22.8793 23.8571 22.9386 23.9456 22.9386Z" fill="#C93668"/>
<path d="M27.4453 24.284L23.891 25.2994C23.7769 25.3332 23.7132 25.4474 23.747 25.5619C23.7723 25.655 23.8569 25.7141 23.9501 25.7141C23.9711 25.7141 23.9882 25.7098 24.0095 25.7056L27.5637 24.6902C27.6779 24.6564 27.7415 24.5422 27.7077 24.4277C27.6736 24.3136 27.5594 24.2502 27.4453 24.284Z" fill="#C93668"/>
<path d="M28.5026 19.0123C28.3757 19.0123 28.2743 19.114 28.2743 19.2407V19.8541C28.2743 19.9811 28.376 20.0825 28.5026 20.0825C28.6296 20.0825 28.731 19.9808 28.731 19.8541V19.2407C28.731 19.1137 28.6296 19.0123 28.5026 19.0123Z" fill="#C93668"/>
<path d="M27.2454 21.3395C27.2454 21.2126 27.1437 21.1112 27.017 21.1112H26.4036C26.2766 21.1112 26.1752 21.2129 26.1752 21.3395C26.1752 21.4665 26.2769 21.5679 26.4036 21.5679H27.017C27.144 21.5679 27.2454 21.4662 27.2454 21.3395Z" fill="#C93668"/>
<path d="M27.6141 20.1243L27.1784 19.6886C27.0895 19.5997 26.9415 19.5997 26.8526 19.6886C26.7637 19.7775 26.7637 19.9212 26.8526 20.0144L27.2883 20.4501C27.3349 20.4966 27.39 20.5176 27.4491 20.5176C27.5084 20.5176 27.5675 20.4966 27.6098 20.4501C27.7027 20.3612 27.7026 20.2175 27.6141 20.1243Z" fill="#C93668"/>
<path d="M27.0178 23.0529C27.0772 23.0529 27.1362 23.0319 27.1785 22.9853L27.6142 22.5496C27.7031 22.4607 27.7031 22.317 27.6142 22.2238C27.5253 22.1349 27.3816 22.1349 27.2885 22.2238L26.8528 22.6595C26.7639 22.7484 26.7639 22.8921 26.8528 22.9853C26.8994 23.0319 26.9584 23.0529 27.0178 23.0529Z" fill="#C93668"/>
<path d="M29.5524 20.5182C29.6118 20.5182 29.6709 20.4972 29.7132 20.4506L30.1489 20.0149C30.2378 19.926 30.2378 19.7823 30.1489 19.6892C30.0599 19.6003 29.9163 19.6003 29.8231 19.6892L29.3874 20.1248C29.2985 20.2138 29.2985 20.3574 29.3874 20.4506C29.4337 20.4972 29.4931 20.5182 29.5524 20.5182Z" fill="#C93668"/>
</svg>
